<svg width="12" height="13" viewBox="0 0 12 13" fill="none" xmlns="http://www.w3.org/2000/svg">
<path opacity="0.8" fill-rule="evenodd" clip-rule="evenodd" d="M10.5736 0H1.4264C0.638573 0 0 0.690014 0 1.54172V11.4583C0 12.3096 0.638573 13 1.4264 13H10.5736C11.3614 13 12 12.3096 12 11.4583V1.54172C12 0.690014 11.3614 0 10.5736 0ZM8.625 2.031C8.625 1.8069 8.79291 1.625 8.99976 1.625H10.1247C10.3319 1.625 10.4998 1.8069 10.4998 2.031V3.25004C10.4998 3.47414 10.3319 3.65604 10.1247 3.65604H8.99976C8.79291 3.65604 8.625 3.47414 8.625 3.25004V2.031ZM6.01405 4.02051C7.28857 4.02051 8.32188 5.13744 8.32188 6.51463C8.32188 7.89218 7.28857 9.00875 6.01405 9.00875C4.73985 9.00875 3.70654 7.89218 3.70654 6.51463C3.70654 5.13744 4.73985 4.02051 6.01405 4.02051ZM10.8751 11.3751C10.8751 11.5992 10.7072 11.7814 10.5 11.7814H1.50009C1.29291 11.7814 1.125 11.5992 1.125 11.3751V5.28125H2.62504C2.42964 5.58583 2.36352 6.15423 2.36352 6.51519C2.36352 8.69055 4.00136 10.4606 6.01396 10.4606C8.02689 10.4606 9.66473 8.69055 9.66473 6.51519C9.66473 6.15423 9.61727 5.5947 9.37506 5.28125H10.8751V11.3751Z" fill="white"/>
</svg>
