<svg width="80" height="80" viewBox="0 0 80 80" fill="none" xmlns="http://www.w3.org/2000/svg">
<path d="M0 40C0 62.0914 17.9086 80 40 80C62.0914 80 80 62.0914 80 40C80 17.9086 62.0914 0 40 0C17.9086 0 0 17.9086 0 40Z" fill="white"/>
<path d="M50.3342 38.6111L31.585 27.1529C31.4271 27.0563 31.2463 27.0036 31.0613 27.0002C30.8762 26.9967 30.6936 27.0426 30.5322 27.1331C30.3708 27.2237 30.2364 27.3556 30.1428 27.5153C30.0493 27.675 30 27.8567 30 28.0418V50.9582C30 51.1433 30.0493 51.325 30.1428 51.4847C30.2364 51.6444 30.3708 51.7763 30.5322 51.8669C30.6936 51.9574 30.8762 52.0033 31.0613 51.9998C31.2463 51.9964 31.4271 51.9437 31.585 51.8471L50.3342 40.3889C50.4865 40.2959 50.6123 40.1652 50.6996 40.0096C50.7869 39.8539 50.8328 39.6785 50.8328 39.5C50.8328 39.3215 50.7869 39.1461 50.6996 38.9904C50.6123 38.8348 50.4865 38.7041 50.3342 38.6111Z" stroke="#1DA1F2" stroke-width="2" stroke-linecap="round" stroke-linejoin="round"/>
</svg>
